<svg xmlns="http://www.w3.org/2000/svg" xmlns:xlink="http://www.w3.org/1999/xlink" viewBox="0 0 706.84 116.87"><defs><style>.cls-1{fill:url(#linear-gradient);}.cls-2{fill:url(#linear-gradient-2);}.cls-3{fill:url(#linear-gradient-3);}.cls-4{fill:url(#linear-gradient-4);}.cls-5{fill:url(#linear-gradient-5);}.cls-6{fill:url(#linear-gradient-6);}.cls-7{fill:url(#linear-gradient-7);}.cls-8{fill:url(#linear-gradient-8);}.cls-9{fill:url(#linear-gradient-9);}.cls-10{fill:url(#linear-gradient-10);}.cls-11{fill:url(#linear-gradient-11);}.cls-12{fill:url(#linear-gradient-12);}.cls-13{fill:url(#linear-gradient-13);}.cls-14{fill:url(#linear-gradient-14);}.cls-15{fill:url(#linear-gradient-15);}</style><linearGradient id="linear-gradient" x1="245.53" y1="-225.01" x2="460.33" y2="-80.78" gradientTransform="matrix(1, 0, 0, -1, 0, 117.72)" gradientUnits="userSpaceOnUse"><stop offset="0" stop-color="#009cff"/><stop offset="0.68" stop-color="#009cff"/><stop offset="1" stop-color="#08efde"/></linearGradient><linearGradient id="linear-gradient-2" x1="133.18" y1="-57.68" x2="347.98" y2="86.54" xlink:href="#linear-gradient"/><linearGradient id="linear-gradient-3" x1="161.98" y1="-100.57" x2="376.78" y2="43.65" xlink:href="#linear-gradient"/><linearGradient id="linear-gradient-4" x1="172.59" y1="-116.39" x2="387.4" y2="27.84" xlink:href="#linear-gradient"/><linearGradient id="linear-gradient-5" x1="135.91" y1="-61.75" x2="350.71" y2="82.48" xlink:href="#linear-gradient"/><linearGradient id="linear-gradient-6" x1="165.56" y1="-105.92" x2="380.37" y2="38.31" xlink:href="#linear-gradient"/><linearGradient id="linear-gradient-7" x1="88.8" y1="8.42" x2="303.6" y2="152.65" xlink:href="#linear-gradient"/><linearGradient id="linear-gradient-8" x1="104.43" y1="-14.86" x2="319.23" y2="129.36" xlink:href="#linear-gradient"/><linearGradient id="linear-gradient-9" x1="124.95" y1="-45.43" x2="339.76" y2="98.8" xlink:href="#linear-gradient"/><linearGradient id="linear-gradient-10" x1="140.45" y1="-68.52" x2="355.26" y2="75.71" xlink:href="#linear-gradient"/><linearGradient id="linear-gradient-11" x1="50.06" y1="66.11" x2="264.86" y2="210.34" xlink:href="#linear-gradient"/><linearGradient id="linear-gradient-12" x1="77.24" y1="25.64" x2="292.04" y2="169.86" xlink:href="#linear-gradient"/><linearGradient id="linear-gradient-13" x1="90.33" y1="6.13" x2="305.13" y2="150.36" xlink:href="#linear-gradient"/><linearGradient id="linear-gradient-14" x1="193.67" y1="-147.78" x2="408.48" y2="-3.55" xlink:href="#linear-gradient"/><linearGradient id="linear-gradient-15" x1="222.42" y1="-190.6" x2="437.22" y2="-46.37" xlink:href="#linear-gradient"/></defs><title>WeightBuddyLogo</title><g id="Layer_2" data-name="Layer 2"><g id="Layer_1-2" data-name="Layer 1"><polygon class="cls-1" points="692.93 31.06 676.58 58.26 660.22 31.06 645.18 31.06 668.88 70.42 668.88 92.28 683.05 92.28 683.05 70.59 706.84 31.06 692.93 31.06"/><circle class="cls-2" cx="382.88" cy="7.74" r="7.74"/><path class="cls-3" d="M392.32,69.29a70.58,70.58,0,0,0-2.68-6.79l-.79-1.63c-.22-.45-.43-.91-.63-1.37a28.23,28.23,0,0,1-1-2.8A26,26,0,0,1,386.27,45,38.94,38.94,0,0,1,390,33a63,63,0,0,1,7-11.24c1.95-2.54,4.05-5,6.36-7.51a49,49,0,0,0-8.6,5.23,46.62,46.62,0,0,0-10.08,10.36,39.68,39.68,0,0,0-3.7,6.51,34.32,34.32,0,0,0-2.38,7.28c-.14.55-.22,1.11-.31,1.7l0,.18c-.11.63-.18,1.27-.23,1.92a28.07,28.07,0,0,0-.14,3.95,31.26,31.26,0,0,0,1.36,7.81,34.52,34.52,0,0,0,1.41,3.66c.27.59.55,1.18.85,1.76l.75,1.46c1.09,2.08,2,4.26,2.74,5.92a82.88,82.88,0,0,1,4,12.46,69.47,69.47,0,0,1,1.82,13.16,72.73,72.73,0,0,1-.3,9.84,40.28,40.28,0,0,0,3.51-9.5,48,48,0,0,0,1.09-14.39A59.45,59.45,0,0,0,392.32,69.29Z"/><path class="cls-4" d="M380.81,91.82a32.74,32.74,0,0,1,.9-6.1l0-.14c0-.13-.05-.25-.08-.38A73.71,73.71,0,0,0,378,74c-.4-.94-.9-2.09-1.46-3.29a23.17,23.17,0,0,0-1.1,2.84A34.43,34.43,0,0,0,374.2,78l-.06.26-.37,2.48a15.78,15.78,0,0,0-.13,1.58c0,.28,0,.55-.05.8a38.83,38.83,0,0,0,.73,9.32,52.59,52.59,0,0,0,6.62,16.33,71.89,71.89,0,0,0,5.69,8.1,72.45,72.45,0,0,1-3.51-9.09A48.32,48.32,0,0,1,380.81,91.82Z"/><path class="cls-5" d="M379.76,25.07c-1.52-1.17-4.57-3.2-6.56-4.51-3.28-2.13-6.72-4.15-10.4-6.13,3,2.89,5.75,5.78,8.24,8.64,1.8,2.08,4.39,5.69,5.63,7.43C377.49,29,378.73,26.56,379.76,25.07Z"/><path class="cls-6" d="M421,60.45A14.71,14.71,0,0,0,429.08,47c0-9.53-7.87-15.92-23.18-15.92H394.17a39.65,39.65,0,0,0-3.39,10.67h13.37c6.91,0,10.67,2.36,10.67,7.17s-3.76,7.26-10.67,7.26h-12c.14.36.27.72.42,1.06s.41.92.63,1.37l.79,1.63c1,2.27,1.83,4.32,2.49,6.26h10.09c7.35,0,11.28,2.45,11.28,7.61s-3.94,7.52-11.28,7.52h-7.06a49.49,49.49,0,0,1-.45,10.67h8.57c16.09,0,24.49-6.12,24.49-16.7C432.14,67.88,427.77,62.64,421,60.45Z"/><rect class="cls-7" x="156.49" y="31.06" width="6.47" height="61.22"/><path class="cls-8" d="M210.1,36.31c7.17,0,13.29,2.1,18.45,7.17l4-4.11c-5.42-5.86-13.47-8.83-22.74-8.83-18.72,0-32.36,13.21-32.36,31.13s13.64,31.14,32.27,31.14c8.48,0,16.71-2.62,22.48-7.78V61.68H205v6.05h21V82.32C221.29,85.73,215.86,87,210,87c-15,0-26.15-10.84-26.15-25.36S195,36.31,210.1,36.31Z"/><polygon class="cls-9" points="295.28 58.35 256.97 58.35 256.97 31.06 250.5 31.06 250.5 92.28 256.97 92.28 256.97 64.03 295.28 64.03 295.28 92.28 301.67 92.28 301.67 31.06 295.28 31.06 295.28 58.35"/><polygon class="cls-10" points="311.98 36.66 333.5 36.66 333.5 92.28 339.97 92.28 339.97 36.66 361.48 36.66 361.48 31.06 311.98 31.06 311.98 36.66"/><polygon class="cls-11" points="85.75 31.06 84.57 31.06 66.65 83.97 48.63 31.06 42.59 31.06 24.31 83.71 6.65 31.06 0 31.06 20.64 92.28 27.38 92.28 45.39 40.07 63.32 92.28 70.14 92.28 88.9 36.66 141.28 36.66 141.28 31.06 90.78 31.06 85.75 31.06"/><rect class="cls-12" x="105.19" y="58.44" width="36.09" height="5.51"/><rect class="cls-13" x="105.19" y="86.69" width="36.09" height="5.6"/><path class="cls-14" d="M539.62,31.06H483.83V64.82c0,11.63-5,16.44-13.64,16.44s-13.64-4.81-13.64-16.44V31.06H442.38V65.34c0,18,10.32,28,27.72,28s27.73-10,27.73-28V42.69h41.11c12.16,0,20.12,7.26,20.12,19s-8,19-20.12,19H526V49.19H511.83V92.28h27.81c20,0,33.76-12.07,33.76-30.61S559.65,31.06,539.62,31.06Z"/><path class="cls-15" d="M611.86,31.06h-3.93L556,30.5c13.3,2.91,17.37,12.2,17.37,12.2h37.78c12.16,0,20.12,7.26,20.12,19s-8,19-20.12,19H598.22V49.2H584.05V92.29h27.81c20,0,33.76-12.07,33.76-30.61S631.89,31.06,611.86,31.06Z"/></g></g></svg>